<?xml version="1.0" encoding="UTF-8"?>
<svg id="Illustrations" xmlns="http://www.w3.org/2000/svg" version="1.1" viewBox="0 0 320 180">
  <defs>
    <style>
      .cls-1, .cls-2 {
        stroke: #2b5238;
        stroke-linecap: square;
        stroke-miterlimit: 10;
        stroke-width: 3.5px;
      }

      .cls-1, .cls-3 {
        fill: #fff;
      }

      .cls-2 {
        fill: none;
      }

      .cls-4 {
        fill: #62ad41;
      }

      .cls-4, .cls-5, .cls-3 {
        stroke-width: 0px;
      }

      .cls-6 {
        isolation: isolate;
      }

      .cls-5 {
        fill: #2b5238;
      }
    </style>
  </defs>
  <g id="estateplan-smp-360x1880">
    <g id="FLT_ART_WORKS-2" data-name="FLT ART WORKS-2">
      <path class="cls-3" d="M253.4,26.7v126.4h-69.4c-15,.2-20.2,2.8-22.4,4-.6.3-1.3.5-2,.5h-.5c-.7,0-1.4-.1-2-.5-8.8-5.5-91.7-4-91.7-4V26.7h16.1v-5.5h57.7c1.5,0,14.8-.2,20.7,5.2,5.9-5.3,19.3-5.2,20.8-5.2h57.6v5.5h15.1Z"/>
      <path class="cls-4" d="M81.2,28.4h-10.9v121.2s52.3-.7,69.7-.2,13.2,2.1,19.5,4.4l.4-10.8L81.2,43.2v-14.9h0Z"/>
      <path class="cls-4" d="M248.5,28.4h-10.5v9.9c.1,0-77.8,108.2-77.8,108.2l-.3,7c5.4-1.2,8.5-2.8,16.8-3.7s71.9-.2,71.9-.2V28.3h-.1Z"/>
      <path class="cls-2" d="M252.3,152.9V27h-67.9s-25.8-.5-25.8,9.7v120.2c0,.5.5.8,1,.8s.2,0,.4-.1c2.8-1.5,10.1-4.6,24.4-4.6h67.9Z"/>
      <path class="cls-2" d="M66.2,152.9V27h67.9s25.8-.5,25.8,9.7v120.2c0,.5-.5.8-1,.8s-.2,0-.4-.1c-2.8-1.5-10.1-4.6-24.4-4.6h-67.9Z"/>
      <path class="cls-1" d="M138.7,139.1h-56V21.2h56s21.2-.5,21.2,9.1v112.5c0,.4-.3.7-.7.7s-.3,0-.4-.1c-2.2-1.4-8.3-4.3-20.1-4.3h0Z"/>
      <path class="cls-1" d="M181.1,139.1h55.9V21.2h-55.9s-21.2-.5-21.2,9.1v112.5c0,.4.3.7.7.7s.3,0,.4-.1c2.3-1.4,8.4-4.3,20.1-4.3h0Z"/>
      <line class="cls-2" x1="103.1" y1="86.9" x2="139.5" y2="86.9"/>
      <line class="cls-2" x1="103.1" y1="54.4" x2="139.5" y2="54.4"/>
      <line class="cls-2" x1="103.1" y1="70.6" x2="139.5" y2="70.6"/>
      <line class="cls-2" x1="103.1" y1="103.1" x2="139.5" y2="103.1"/>
    </g>
    <g class="cls-6">
      <path class="cls-5" d="M177.1,49.2l-2.8,1.8v-2.7l3.2-2.3h2.8v13.9h-3.2v-10.8h0Z"/>
    </g>
    <g class="cls-6">
      <path class="cls-5" d="M172.3,85.1l5.1-5.4c1.3-1.4,2.2-2.6,2.2-3.9s-.6-1.9-1.8-1.9-2,.7-2.2,2.5h-2.9c.2-3.2,2.1-5,5.2-5s4.8,1.7,4.8,4.2-1.1,3.4-2.7,4.9l-2.6,2.6h5.4v2.4h-10.5v-.5h0Z"/>
    </g>
    <g class="cls-6">
      <path class="cls-5" d="M172.4,106.8h2.8c.1,1.3.8,2.3,2.5,2.3s2.3-.7,2.3-2-.7-2-2.2-2h-1.1v-2.1h1c1.5,0,2.1-.7,2.1-1.8s-.6-1.7-1.9-1.7-2.1.8-2.3,2.1h-2.8c.2-2.5,2-4.4,5.1-4.4s4.8,1.6,4.8,3.8-.9,2.5-2.3,3c1.6.3,2.7,1.5,2.7,3.3,0,2.6-2,4.3-5.4,4.3s-5.3-1.8-5.5-4.6h0l.2-.2Z"/>
    </g>
    <line class="cls-2" x1="195" y1="103.6" x2="220.1" y2="103.6"/>
    <line class="cls-2" x1="195" y1="53.9" x2="220.1" y2="53.9"/>
    <line class="cls-2" x1="195" y1="78.8" x2="220.1" y2="78.8"/>
  </g>
</svg>