<svg xmlns="http://www.w3.org/2000/svg" viewBox="0 0 200 90"><title>manyWaysToBank</title><g id="FLT_ART_WORKS" data-name="FLT ART WORKS"><rect x="19.77" y="32.2" width="22.85" height="41.74" rx="2.52" style="fill:#fff"/><path d="M180.23,46.44a17.54,17.54,0,0,1-5.81,12.8L160.67,73,146.92,59.29a17.31,17.31,0,0,1-5.75-12.58,19.57,19.57,0,0,1,33.31-14.38A19.27,19.27,0,0,1,180.23,46.44Z" style="fill:#fff"/><path d="M131.5,65.2H54.69V17.39a2.47,2.47,0,0,1,2.47-2.47H129a2.47,2.47,0,0,1,2.47,2.47Z" style="fill:#fff"/><path d="M130,63.69H56.19V17.38a1,1,0,0,1,1-1H129a1,1,0,0,1,1,1Z" style="fill:none;stroke:#1a5336;stroke-linecap:square;stroke-miterlimit:10;stroke-width:3px"/><path d="M137.12,66.76H103.24v.77a.68.68,0,0,1-.67.68H83.62a.68.68,0,0,1-.68-.68v-.77H49.16a1.63,1.63,0,0,0-1.64,1.63V72a1.63,1.63,0,0,0,1.64,1.63h88a1.54,1.54,0,0,0,1.54-1.54V68.3A1.54,1.54,0,0,0,137.12,66.76Z" style="fill:#1a5336"/><rect x="21.27" y="33.7" width="19.85" height="38.74" rx="1.02" style="fill:none;stroke:#1b5336;stroke-miterlimit:10;stroke-width:3px"/><line x1="21.27" y1="40.3" x2="41.11" y2="40.3" style="fill:none;stroke:#1b5336;stroke-miterlimit:10;stroke-width:3px"/><line x1="21.27" y1="63.49" x2="41.11" y2="63.49" style="fill:none;stroke:#1b5336;stroke-miterlimit:10;stroke-width:3px"/><rect x="28.61" y="66.76" width="5.15" height="1.74" style="fill:#1b5336"/><path d="M161.71,28.75a16.62,16.62,0,0,0-16.57,17A14.49,14.49,0,0,0,150,56.25l11.68,11.64,11.71-11.7a14.7,14.7,0,0,0,4.87-10.72,16.51,16.51,0,0,0-16.52-16.72Z" style="fill:#00b624"/><path d="M150.88,41.3h14.56c3.53,0,5.17,1.7,5.17,6,0,5.65-2.46,6.34-5.86,6.34H158.9V43.7h2.94v8.22h2.84c1.95,0,2.78-1.28,2.78-4.55s-.94-4.27-2.92-4.27h-6.47V53.63h-2.92V43.06h-4.27Z" style="fill:#fff"/><path d="M160.67,70.87l12.75-12.75c7-6.32,7.12-17.69,0-24.73a18,18,0,0,0-25.45.06c-7,7-7.12,18.45,0,24.77Z" style="fill:none;stroke:#1a5336;stroke-miterlimit:10;stroke-width:3px"/><polygon points="96.19 37.7 86.88 33.49 91.1 42.8 92.63 41.27 96.79 45.42 98.81 43.39 94.66 39.24 96.19 37.7" style="fill:#1a5336"/></g></svg>